<?xml version="1.0" standalone="no"?><!DOCTYPE svg PUBLIC "-//W3C//DTD SVG 1.1//EN" "http://www.w3.org/Graphics/SVG/1.1/DTD/svg11.dtd"><svg t="1758366964414" class="icon" viewBox="0 0 1024 1024" version="1.1" xmlns="http://www.w3.org/2000/svg" p-id="2712" xmlns:xlink="http://www.w3.org/1999/xlink" width="200" height="200"><path d="M786.152727 239.150545c0-18.944-18.059636-14.242909-23.645091-8.610909-10.798545 11.636364-39.191273 35.281455-99.886545 47.755637a123.717818 123.717818 0 0 1-27.927273 3.025454c-29.323636 0-53.853091-9.495273-81.826909-20.666182-32.256-12.474182-68.840727-26.670545-118.784-26.670545-4.282182 0-8.610909 0-12.893091 0.418909-54.225455 2.56-101.143273 26.251636-135.168 43.892364-9.960727 4.980364-20.014545 9.867636-30.114909 14.615272l-3.025454-7.307636-0.41891-0.418909a21.969455 21.969455 0 0 0-28.858181-11.636364 21.364364 21.364364 0 0 0-11.589819 12.101819 22.621091 22.621091 0 0 0 0 16.756363l224.256 531.083637c3.444364 8.192 11.170909 13.358545 20.200728 13.358545a21.969455 21.969455 0 0 0 20.247272-30.580364l-76.613818-181.620363a123.624727 123.624727 0 0 1 74.007273-55.528728c13.358545-3.397818 27.136-5.585455 42.170182-5.585454 28.858182 0 56.832 6.469818 86.574545 13.358545 27.089455 6.050909 54.597818 12.474182 81.733818 12.474182 40.866909 0 72.285091-14.196364 99.421091-44.311273a21.643636 21.643636 0 0 0 2.141091-6.888727v-309.061818z" fill="#EA5151" p-id="2713"></path></svg>